M48
;Layer_Color=6321
;FILE_FORMAT=4:4
METRIC,LZ
;TYPE=PLATED
T01F00S00C0.3000
;TYPE=NON_PLATED
T03F00S00C0.6500
T04F00S00C0.9000
%
T01
X00012Y00008
X00028Y0000735
X00039Y0001745
X0004905Y00008
X00092Y0002505
Y0004395
X0011Y00042
X00126
X0013545Y0003255
X0013035Y00057
Y00072
X0010835Y000775
X00115Y00095
X0009195Y001239
X0007445Y00127
X00137534Y00130338
X00073Y00058
X00169Y00065
X00188Y00058
X00198497Y00057965
X002Y00079444
Y00095
X00207778Y00102778
X00192222
Y00087222
X00207778
X00215556Y00095
X002Y00110556
X00184444Y00095
X00165572Y0011175
X00167Y00127
X00175Y00127598
X00146984Y00139789
X00223821Y00122357
X00251859Y00140945
X0027Y00085
Y00065
X0022Y00039
X00193Y0003797
X0018692Y0003135
X0019962Y0001038
X0021232
X0031Y00105
Y00125
X003225Y001375
X00335Y00125
Y00105
X00357Y00165
X00357Y0018
X00242409Y00150395
X00199002Y00151552
X00189552Y00161002
X000405Y00155
T03
X000543Y000661
Y001239
T04
X0017422Y0001484
Y0003516
X0022502Y00025
M30
