G04*
G04 #@! TF.GenerationSoftware,Altium Limited,Altium Designer,26.7.1 (11)*
G04*
G04 Layer_Color=20142*
G04 Board_Origin=10000000|10000000*
%FSLAX44Y44*%
%MOMM*%
G71*
G04*
G04 #@! TF.SameCoordinates,01AF191F-086B-4CA7-9458-D37D5C4D2032*
G04*
G04*
G04 #@! TF.FilePolarity,Negative*
G04*
G01*
G75*
%ADD33R,1.6532X1.3032*%
%ADD34R,3.1032X2.2032*%
%ADD35R,0.9932X1.1332*%
G04:AMPARAMS|DCode=36|XSize=1.1332mm|YSize=1.1232mm|CornerRadius=0mm|HoleSize=0mm|Usage=FLASHONLY|Rotation=135.000|XOffset=0mm|YOffset=0mm|HoleType=Round|Shape=Rectangle|*
%AMROTATEDRECTD36*
4,1,4,0.7978,-0.0035,0.0035,-0.7978,-0.7978,0.0035,-0.0035,0.7978,0.7978,-0.0035,0.0*
%
%ADD36ROTATEDRECTD36*%

G04:AMPARAMS|DCode=37|XSize=0.5032mm|YSize=1.2032mm|CornerRadius=0mm|HoleSize=0mm|Usage=FLASHONLY|Rotation=315.000|XOffset=0mm|YOffset=0mm|HoleType=Round|Shape=Round|*
%AMOVALD37*
21,1,0.7000,0.5032,0.0000,0.0000,45.0*
1,1,0.5032,-0.2475,-0.2475*
1,1,0.5032,0.2475,0.2475*
%
%ADD37OVALD37*%

G04:AMPARAMS|DCode=38|XSize=0.5032mm|YSize=1.2032mm|CornerRadius=0mm|HoleSize=0mm|Usage=FLASHONLY|Rotation=45.000|XOffset=0mm|YOffset=0mm|HoleType=Round|Shape=Round|*
%AMOVALD38*
21,1,0.7000,0.5032,0.0000,0.0000,135.0*
1,1,0.5032,0.2475,-0.2475*
1,1,0.5032,-0.2475,0.2475*
%
%ADD38OVALD38*%

%ADD39R,1.1332X0.9932*%
G04:AMPARAMS|DCode=40|XSize=1.1332mm|YSize=1.1232mm|CornerRadius=0mm|HoleSize=0mm|Usage=FLASHONLY|Rotation=225.000|XOffset=0mm|YOffset=0mm|HoleType=Round|Shape=Rectangle|*
%AMROTATEDRECTD40*
4,1,4,0.0035,0.7978,0.7978,0.0035,-0.0035,-0.7978,-0.7978,-0.0035,0.0035,0.7978,0.0*
%
%ADD40ROTATEDRECTD40*%

%ADD41P,5.0957X4X360.0*%
%ADD42C,1.0032*%
%ADD43R,1.0032X0.6032*%
%ADD44R,1.1332X1.1232*%
%ADD45R,1.3432X0.8032*%
G04:AMPARAMS|DCode=46|XSize=0.8032mm|YSize=1.2032mm|CornerRadius=0.1766mm|HoleSize=0mm|Usage=FLASHONLY|Rotation=270.000|XOffset=0mm|YOffset=0mm|HoleType=Round|Shape=RoundedRectangle|*
%AMROUNDEDRECTD46*
21,1,0.8032,0.8500,0,0,270.0*
21,1,0.4500,1.2032,0,0,270.0*
1,1,0.3532,-0.4250,-0.2250*
1,1,0.3532,-0.4250,0.2250*
1,1,0.3532,0.4250,0.2250*
1,1,0.3532,0.4250,-0.2250*
%
%ADD46ROUNDEDRECTD46*%
G04:AMPARAMS|DCode=47|XSize=1.0032mm|YSize=1.0032mm|CornerRadius=0.2016mm|HoleSize=0mm|Usage=FLASHONLY|Rotation=0.000|XOffset=0mm|YOffset=0mm|HoleType=Round|Shape=RoundedRectangle|*
%AMROUNDEDRECTD47*
21,1,1.0032,0.6000,0,0,0.0*
21,1,0.6000,1.0032,0,0,0.0*
1,1,0.4032,0.3000,-0.3000*
1,1,0.4032,-0.3000,-0.3000*
1,1,0.4032,-0.3000,0.3000*
1,1,0.4032,0.3000,0.3000*
%
%ADD47ROUNDEDRECTD47*%
G04:AMPARAMS|DCode=48|XSize=1.1332mm|YSize=0.9932mm|CornerRadius=0mm|HoleSize=0mm|Usage=FLASHONLY|Rotation=315.000|XOffset=0mm|YOffset=0mm|HoleType=Round|Shape=Rectangle|*
%AMROTATEDRECTD48*
4,1,4,-0.7518,0.0495,-0.0495,0.7518,0.7518,-0.0495,0.0495,-0.7518,-0.7518,0.0495,0.0*
%
%ADD48ROTATEDRECTD48*%

%ADD49R,0.9032X0.6032*%
%ADD50R,1.3432X0.5032*%
%ADD51C,0.8500*%
%ADD52O,2.0032X1.2032*%
%ADD53O,2.3032X1.2032*%
%ADD54C,0.8532*%
D33*
X322500Y125000D02*
D03*
Y105000D02*
D03*
Y85000D02*
D03*
Y65000D02*
D03*
D34*
X382250Y36050D02*
D03*
Y153950D02*
D03*
D35*
X295000Y65000D02*
D03*
Y85000D02*
D03*
X98900Y77500D02*
D03*
X33200Y171000D02*
D03*
X16800D02*
D03*
X139800Y57000D02*
D03*
X156200D02*
D03*
X278600Y65000D02*
D03*
Y85000D02*
D03*
X82500Y77500D02*
D03*
X139800Y72000D02*
D03*
X156200D02*
D03*
D36*
X242409Y140945D02*
D03*
X189552Y151552D02*
D03*
X178874Y140874D02*
D03*
X231732Y130268D02*
D03*
D37*
X212374Y117981D02*
D03*
X205303Y125052D02*
D03*
X208839Y121517D02*
D03*
X215910Y114445D02*
D03*
X219445Y110910D02*
D03*
X222981Y107374D02*
D03*
X226516Y103839D02*
D03*
X230052Y100303D02*
D03*
X194697Y64948D02*
D03*
X191161Y68484D02*
D03*
X187626Y72019D02*
D03*
X184090Y75555D02*
D03*
X180555Y79090D02*
D03*
X177019Y82626D02*
D03*
X173484Y86161D02*
D03*
X169948Y89697D02*
D03*
D38*
X184090Y114445D02*
D03*
X230052Y89697D02*
D03*
X226516Y86161D02*
D03*
X222981Y82626D02*
D03*
X219445Y79090D02*
D03*
X215910Y75555D02*
D03*
X212374Y72019D02*
D03*
X208839Y68484D02*
D03*
X205303Y64948D02*
D03*
X169948Y100303D02*
D03*
X173484Y103839D02*
D03*
X177019Y107374D02*
D03*
X180555Y110910D02*
D03*
X187626Y117981D02*
D03*
X191161Y121517D02*
D03*
X194697Y125052D02*
D03*
D39*
X82500Y123900D02*
D03*
X28000Y16800D02*
D03*
X82500Y107500D02*
D03*
X28000Y33200D02*
D03*
D40*
X146984Y130338D02*
D03*
X157661Y119661D02*
D03*
D41*
X200000Y95000D02*
D03*
D42*
X186920Y31350D02*
D03*
X199620Y18650D02*
D03*
Y31350D02*
D03*
X212320Y18650D02*
D03*
Y31350D02*
D03*
X186920Y18650D02*
D03*
D43*
X106000Y95000D02*
D03*
D44*
X110000Y17450D02*
D03*
X126000D02*
D03*
X49000D02*
D03*
X12000D02*
D03*
X49000Y32550D02*
D03*
X126000D02*
D03*
X110000D02*
D03*
X12000D02*
D03*
D45*
X65000Y127000D02*
D03*
Y63000D02*
D03*
Y71000D02*
D03*
Y119000D02*
D03*
D46*
X66000Y25000D02*
D03*
X92000Y34500D02*
D03*
X66000Y15500D02*
D03*
Y34500D02*
D03*
X92000Y15500D02*
D03*
D47*
X33500Y155000D02*
D03*
X328500Y180000D02*
D03*
X345500D02*
D03*
X328500Y165000D02*
D03*
X345500D02*
D03*
X16500Y155000D02*
D03*
D48*
X274202Y144202D02*
D03*
X285798Y155798D02*
D03*
X285202Y133202D02*
D03*
X296798Y144798D02*
D03*
D49*
X124000Y88500D02*
D03*
Y101500D02*
D03*
D50*
X65000Y112500D02*
D03*
Y77500D02*
D03*
Y107500D02*
D03*
Y82500D02*
D03*
Y102500D02*
D03*
Y87500D02*
D03*
Y97500D02*
D03*
Y92500D02*
D03*
D51*
X225020Y25000D02*
D03*
X174220Y14840D02*
D03*
Y35160D02*
D03*
D52*
X17500Y51800D02*
D03*
Y138200D02*
D03*
D53*
X59300Y51800D02*
D03*
Y138200D02*
D03*
D54*
X54300Y123900D02*
D03*
Y66100D02*
D03*
M02*
