G04*
G04 #@! TF.GenerationSoftware,Altium Limited,Altium Designer,26.7.1 (11)*
G04*
G04 Layer_Physical_Order=3*
G04 Layer_Color=56745*
G04 Board_Origin=10000000|10000000*
%FSLAX44Y44*%
%MOMM*%
G71*
G04*
G04 #@! TF.SameCoordinates,01AF191F-086B-4CA7-9458-D37D5C4D2032*
G04*
G04*
G04 #@! TF.FilePolarity,Positive*
G04*
G01*
G75*
%ADD51C,0.8500*%
%ADD61O,1.8000X1.0000*%
%ADD62O,2.1000X1.0000*%
%ADD63C,0.6500*%
%ADD64C,0.6000*%
G36*
X397706Y2294D02*
X30166D01*
X29918Y3544D01*
X30407Y3747D01*
X31603Y4943D01*
X32250Y6505D01*
Y8195D01*
X31603Y9757D01*
X30407Y10953D01*
X28845Y11600D01*
X27155D01*
X25593Y10953D01*
X24397Y9757D01*
X23750Y8195D01*
Y6505D01*
X24397Y4943D01*
X25593Y3747D01*
X26082Y3544D01*
X25834Y2294D01*
X2294D01*
Y187706D01*
X397706D01*
Y2294D01*
D02*
G37*
G36*
X485751Y25663D02*
X483502D01*
X482867Y30651D01*
X482846D01*
X480763Y25663D01*
X479867D01*
X477878Y30651D01*
X477857D01*
X477128Y25663D01*
X474889D01*
X476358Y34327D01*
X478576D01*
X480336Y29693D01*
X482200Y34327D01*
X484439D01*
X485751Y25663D01*
D02*
G37*
G36*
X468954Y31963D02*
X469141Y31921D01*
X469297Y31859D01*
X469432Y31786D01*
X469547Y31713D01*
X469630Y31661D01*
X469672Y31619D01*
X469693Y31598D01*
X469818Y31453D01*
X469922Y31297D01*
X469985Y31130D01*
X470037Y30984D01*
X470068Y30849D01*
X470078Y30745D01*
X470089Y30703D01*
Y30672D01*
Y30661D01*
Y30651D01*
X470068Y30443D01*
X470026Y30255D01*
X469964Y30089D01*
X469891Y29953D01*
X469818Y29839D01*
X469755Y29766D01*
X469714Y29714D01*
X469693Y29693D01*
X469547Y29568D01*
X469380Y29474D01*
X469224Y29412D01*
X469078Y29360D01*
X468954Y29328D01*
X468849Y29318D01*
X468808Y29307D01*
X468756D01*
X468547Y29328D01*
X468360Y29370D01*
X468193Y29432D01*
X468058Y29505D01*
X467943Y29578D01*
X467870Y29630D01*
X467818Y29672D01*
X467798Y29693D01*
X467673Y29839D01*
X467579Y30005D01*
X467516Y30161D01*
X467464Y30318D01*
X467433Y30443D01*
X467423Y30557D01*
X467412Y30599D01*
Y30630D01*
Y30640D01*
Y30651D01*
X467433Y30859D01*
X467475Y31036D01*
X467537Y31203D01*
X467610Y31338D01*
X467683Y31453D01*
X467735Y31536D01*
X467777Y31578D01*
X467798Y31598D01*
X467954Y31723D01*
X468110Y31817D01*
X468266Y31890D01*
X468422Y31932D01*
X468558Y31963D01*
X468662Y31973D01*
X468703Y31984D01*
X468756D01*
X468954Y31963D01*
D02*
G37*
G36*
X459216Y34660D02*
X459435Y34639D01*
X459643Y34608D01*
X459831Y34556D01*
X460008Y34515D01*
X460174Y34452D01*
X460331Y34390D01*
X460466Y34327D01*
X460591Y34265D01*
X460695Y34202D01*
X460789Y34150D01*
X460862Y34098D01*
X460924Y34056D01*
X460966Y34025D01*
X460987Y34004D01*
X460997Y33994D01*
X461133Y33858D01*
X461247Y33723D01*
X461351Y33577D01*
X461435Y33421D01*
X461518Y33275D01*
X461580Y33119D01*
X461622Y32963D01*
X461664Y32827D01*
X461705Y32682D01*
X461726Y32557D01*
X461747Y32442D01*
X461757Y32348D01*
Y32265D01*
X461768Y32203D01*
Y32161D01*
Y32150D01*
X461757Y31932D01*
X461726Y31734D01*
X461695Y31557D01*
X461653Y31401D01*
X461601Y31265D01*
X461570Y31172D01*
X461539Y31109D01*
X461528Y31099D01*
Y31088D01*
X461435Y30922D01*
X461330Y30776D01*
X461216Y30651D01*
X461112Y30557D01*
X461008Y30474D01*
X460935Y30411D01*
X460883Y30380D01*
X460862Y30370D01*
X461018Y30318D01*
X461164Y30255D01*
X461289Y30172D01*
X461403Y30099D01*
X461487Y30026D01*
X461559Y29964D01*
X461601Y29922D01*
X461612Y29911D01*
X461726Y29787D01*
X461820Y29651D01*
X461914Y29516D01*
X461976Y29391D01*
X462028Y29287D01*
X462070Y29193D01*
X462091Y29141D01*
X462101Y29130D01*
Y29120D01*
X462153Y28953D01*
X462195Y28787D01*
X462226Y28630D01*
X462247Y28485D01*
X462257Y28370D01*
X462268Y28277D01*
Y28214D01*
Y28204D01*
Y28193D01*
X462247Y27870D01*
X462195Y27579D01*
X462122Y27308D01*
X462080Y27193D01*
X462039Y27089D01*
X461997Y26985D01*
X461955Y26902D01*
X461914Y26829D01*
X461882Y26766D01*
X461851Y26714D01*
X461830Y26683D01*
X461820Y26662D01*
X461810Y26652D01*
X461632Y26423D01*
X461435Y26235D01*
X461237Y26058D01*
X461049Y25923D01*
X460872Y25819D01*
X460799Y25777D01*
X460737Y25735D01*
X460685Y25704D01*
X460643Y25694D01*
X460622Y25673D01*
X460612D01*
X460320Y25558D01*
X460018Y25475D01*
X459737Y25413D01*
X459466Y25371D01*
X459352Y25361D01*
X459237Y25350D01*
X459143Y25340D01*
X459060D01*
X458987Y25329D01*
X458706D01*
X458519Y25350D01*
X458362Y25361D01*
X458217Y25381D01*
X458092Y25402D01*
X458008Y25413D01*
X457946Y25433D01*
X457925D01*
X457758Y25475D01*
X457602Y25517D01*
X457467Y25569D01*
X457342Y25610D01*
X457238Y25652D01*
X457154Y25683D01*
X457113Y25704D01*
X457092Y25715D01*
X456904Y25829D01*
X456727Y25944D01*
X456571Y26069D01*
X456436Y26183D01*
X456332Y26287D01*
X456248Y26381D01*
X456196Y26433D01*
X456175Y26454D01*
X456040Y26631D01*
X455915Y26808D01*
X455801Y26975D01*
X455717Y27120D01*
X455644Y27256D01*
X455592Y27360D01*
X455572Y27391D01*
X455561Y27422D01*
X455551Y27433D01*
Y27443D01*
X455478Y27631D01*
X455426Y27818D01*
X455384Y27975D01*
X455363Y28120D01*
X455342Y28235D01*
X455332Y28328D01*
Y28381D01*
Y28401D01*
Y28474D01*
X457623D01*
X457644Y28277D01*
X457686Y28099D01*
X457748Y27943D01*
X457811Y27818D01*
X457873Y27714D01*
X457925Y27641D01*
X457967Y27600D01*
X457977Y27579D01*
X458112Y27475D01*
X458248Y27391D01*
X458394Y27329D01*
X458529Y27287D01*
X458644Y27266D01*
X458737Y27256D01*
X458800Y27246D01*
X458821D01*
X459019Y27266D01*
X459196Y27298D01*
X459341Y27350D01*
X459466Y27412D01*
X459571Y27464D01*
X459643Y27516D01*
X459695Y27558D01*
X459706Y27568D01*
X459820Y27693D01*
X459904Y27839D01*
X459966Y27975D01*
X460008Y28110D01*
X460029Y28224D01*
X460039Y28318D01*
X460050Y28381D01*
Y28391D01*
Y28401D01*
X460029Y28579D01*
X459987Y28745D01*
X459925Y28881D01*
X459862Y29005D01*
X459800Y29099D01*
X459737Y29162D01*
X459695Y29214D01*
X459685Y29224D01*
X459550Y29328D01*
X459414Y29412D01*
X459268Y29474D01*
X459143Y29516D01*
X459029Y29547D01*
X458935Y29557D01*
X458873Y29568D01*
X458852D01*
X458779Y29557D01*
X458706Y29547D01*
X458664Y29537D01*
X458644D01*
X458571Y29526D01*
X458519Y29516D01*
X458477Y29505D01*
X458456Y29495D01*
Y30995D01*
X458654D01*
X458831Y31005D01*
X458987Y31047D01*
X459112Y31088D01*
X459227Y31130D01*
X459310Y31182D01*
X459362Y31224D01*
X459404Y31255D01*
X459414Y31265D01*
X459498Y31369D01*
X459571Y31484D01*
X459612Y31598D01*
X459643Y31703D01*
X459664Y31807D01*
X459675Y31880D01*
X459685Y31932D01*
Y31953D01*
X459664Y32109D01*
X459633Y32244D01*
X459581Y32359D01*
X459529Y32452D01*
X459477Y32525D01*
X459435Y32578D01*
X459404Y32609D01*
X459393Y32619D01*
X459289Y32692D01*
X459185Y32744D01*
X459081Y32786D01*
X458987Y32807D01*
X458904Y32827D01*
X458842Y32838D01*
X458779D01*
X458633Y32827D01*
X458498Y32786D01*
X458383Y32744D01*
X458289Y32692D01*
X458217Y32640D01*
X458154Y32588D01*
X458123Y32557D01*
X458112Y32546D01*
X458029Y32442D01*
X457977Y32317D01*
X457935Y32203D01*
X457904Y32088D01*
X457883Y31984D01*
X457873Y31900D01*
Y31848D01*
Y31838D01*
Y31828D01*
X455780D01*
X455801Y32046D01*
X455842Y32265D01*
X455905Y32473D01*
X455967Y32661D01*
X456019Y32817D01*
X456050Y32890D01*
X456071Y32942D01*
X456092Y32994D01*
X456113Y33025D01*
X456123Y33046D01*
Y33056D01*
X456259Y33296D01*
X456415Y33504D01*
X456582Y33702D01*
X456738Y33869D01*
X456894Y33994D01*
X457009Y34098D01*
X457061Y34129D01*
X457092Y34160D01*
X457113Y34181D01*
X457123D01*
X457258Y34265D01*
X457404Y34337D01*
X457706Y34452D01*
X458019Y34546D01*
X458321Y34598D01*
X458456Y34619D01*
X458581Y34639D01*
X458696Y34650D01*
X458789Y34660D01*
X458873Y34671D01*
X458987D01*
X459216Y34660D01*
D02*
G37*
G36*
X506538Y34650D02*
X506850Y34608D01*
X507142Y34546D01*
X507267Y34515D01*
X507392Y34483D01*
X507496Y34442D01*
X507600Y34410D01*
X507683Y34379D01*
X507746Y34348D01*
X507808Y34317D01*
X507850Y34306D01*
X507871Y34285D01*
X507881D01*
X508152Y34129D01*
X508391Y33963D01*
X508589Y33786D01*
X508766Y33619D01*
X508902Y33463D01*
X508995Y33338D01*
X509037Y33286D01*
X509058Y33254D01*
X509079Y33233D01*
Y33223D01*
X509224Y32952D01*
X509339Y32682D01*
X509422Y32411D01*
X509474Y32150D01*
X509495Y32036D01*
X509506Y31932D01*
X509516Y31838D01*
X509526Y31755D01*
X509537Y31692D01*
Y31640D01*
Y31609D01*
Y31598D01*
X509526Y31359D01*
X509516Y31255D01*
Y31172D01*
X509506Y31088D01*
X509495Y31036D01*
X509485Y30995D01*
Y30984D01*
X509443Y30786D01*
X509422Y30693D01*
X509401Y30620D01*
X509391Y30557D01*
X509370Y30505D01*
X509360Y30474D01*
Y30463D01*
X509297Y30297D01*
X509224Y30141D01*
X509151Y30005D01*
X509068Y29880D01*
X509006Y29776D01*
X508954Y29693D01*
X508912Y29651D01*
X508902Y29630D01*
X508777Y29474D01*
X508631Y29318D01*
X508475Y29162D01*
X508329Y29005D01*
X508193Y28870D01*
X508089Y28766D01*
X508048Y28724D01*
X508016Y28693D01*
X507996Y28683D01*
X507985Y28672D01*
X506798Y27558D01*
X509631D01*
Y25663D01*
X502664D01*
X506204Y29505D01*
X506371Y29693D01*
X506506Y29880D01*
X506631Y30057D01*
X506735Y30224D01*
X506819Y30359D01*
X506871Y30463D01*
X506892Y30505D01*
X506912Y30536D01*
X506923Y30547D01*
Y30557D01*
X507017Y30765D01*
X507079Y30963D01*
X507131Y31151D01*
X507162Y31307D01*
X507183Y31442D01*
X507194Y31546D01*
X507204Y31588D01*
Y31619D01*
Y31630D01*
Y31640D01*
X507194Y31807D01*
X507152Y31963D01*
X507110Y32098D01*
X507058Y32213D01*
X507006Y32307D01*
X506954Y32369D01*
X506923Y32421D01*
X506912Y32432D01*
X506798Y32536D01*
X506683Y32619D01*
X506569Y32682D01*
X506454Y32723D01*
X506350Y32754D01*
X506277Y32765D01*
X506225Y32775D01*
X506204D01*
X506048Y32754D01*
X505913Y32723D01*
X505798Y32671D01*
X505704Y32619D01*
X505621Y32567D01*
X505569Y32515D01*
X505527Y32484D01*
X505517Y32473D01*
X505434Y32359D01*
X505371Y32234D01*
X505330Y32109D01*
X505298Y31984D01*
X505277Y31880D01*
X505267Y31796D01*
X505257Y31734D01*
Y31723D01*
Y31713D01*
Y31640D01*
X505267Y31588D01*
Y31546D01*
Y31526D01*
X505277Y31453D01*
X505288Y31401D01*
X505298Y31359D01*
Y31338D01*
X502820D01*
X502841Y31630D01*
X502882Y31890D01*
X502934Y32150D01*
X503007Y32380D01*
X503080Y32598D01*
X503163Y32807D01*
X503247Y32984D01*
X503340Y33150D01*
X503424Y33296D01*
X503507Y33421D01*
X503590Y33535D01*
X503653Y33629D01*
X503715Y33692D01*
X503757Y33744D01*
X503788Y33775D01*
X503799Y33786D01*
X503976Y33942D01*
X504163Y34077D01*
X504361Y34192D01*
X504559Y34296D01*
X504757Y34379D01*
X504955Y34452D01*
X505153Y34504D01*
X505340Y34556D01*
X505517Y34598D01*
X505673Y34619D01*
X505819Y34639D01*
X505944Y34660D01*
X506048D01*
X506131Y34671D01*
X506194D01*
X506538Y34650D01*
D02*
G37*
G36*
X493874Y34317D02*
X494093Y34296D01*
X494509Y34233D01*
X494697Y34181D01*
X494884Y34140D01*
X495051Y34077D01*
X495207Y34025D01*
X495353Y33973D01*
X495478Y33921D01*
X495592Y33869D01*
X495686Y33827D01*
X495759Y33786D01*
X495811Y33754D01*
X495842Y33744D01*
X495853Y33733D01*
X496207Y33504D01*
X496363Y33379D01*
X496519Y33254D01*
X496655Y33119D01*
X496790Y32994D01*
X496905Y32869D01*
X497009Y32744D01*
X497103Y32629D01*
X497186Y32525D01*
X497259Y32432D01*
X497321Y32348D01*
X497363Y32275D01*
X497394Y32223D01*
X497415Y32192D01*
X497425Y32182D01*
X497529Y31994D01*
X497623Y31807D01*
X497696Y31619D01*
X497769Y31432D01*
X497873Y31057D01*
X497904Y30890D01*
X497946Y30724D01*
X497967Y30568D01*
X497988Y30432D01*
X497998Y30307D01*
X498008Y30203D01*
X498019Y30109D01*
Y30047D01*
Y30005D01*
Y29995D01*
X498008Y29776D01*
X497988Y29557D01*
X497925Y29141D01*
X497873Y28953D01*
X497831Y28776D01*
X497769Y28599D01*
X497717Y28454D01*
X497665Y28308D01*
X497613Y28183D01*
X497561Y28068D01*
X497519Y27985D01*
X497477Y27902D01*
X497446Y27850D01*
X497436Y27818D01*
X497425Y27808D01*
X497186Y27464D01*
X496936Y27152D01*
X496800Y27016D01*
X496675Y26881D01*
X496540Y26766D01*
X496426Y26662D01*
X496301Y26569D01*
X496197Y26485D01*
X496103Y26412D01*
X496020Y26350D01*
X495947Y26308D01*
X495895Y26277D01*
X495863Y26256D01*
X495853Y26246D01*
X495665Y26142D01*
X495478Y26058D01*
X495280Y25975D01*
X495093Y25912D01*
X494718Y25808D01*
X494541Y25767D01*
X494364Y25735D01*
X494207Y25715D01*
X494072Y25694D01*
X493947Y25683D01*
X493833Y25673D01*
X493749Y25663D01*
X490438D01*
Y34327D01*
X493645D01*
X493874Y34317D01*
D02*
G37*
G36*
X488948Y25663D02*
X486709D01*
Y34327D01*
X488948D01*
Y25663D01*
D02*
G37*
G36*
X452239Y27558D02*
X454947D01*
Y25663D01*
X450000D01*
Y34327D01*
X452239D01*
Y27558D01*
D02*
G37*
G36*
X468954Y28099D02*
X469141Y28058D01*
X469297Y27995D01*
X469432Y27922D01*
X469547Y27850D01*
X469630Y27797D01*
X469672Y27756D01*
X469693Y27735D01*
X469818Y27589D01*
X469922Y27422D01*
X469985Y27266D01*
X470037Y27120D01*
X470068Y26985D01*
X470078Y26871D01*
X470089Y26829D01*
Y26808D01*
Y26787D01*
Y26777D01*
X470068Y26569D01*
X470026Y26391D01*
X469964Y26225D01*
X469891Y26089D01*
X469818Y25975D01*
X469755Y25902D01*
X469714Y25850D01*
X469693Y25829D01*
X469547Y25704D01*
X469380Y25610D01*
X469224Y25548D01*
X469078Y25496D01*
X468954Y25465D01*
X468849Y25454D01*
X468808Y25444D01*
X468756D01*
X468547Y25465D01*
X468360Y25506D01*
X468193Y25569D01*
X468058Y25642D01*
X467943Y25715D01*
X467870Y25767D01*
X467818Y25808D01*
X467798Y25829D01*
X467673Y25975D01*
X467579Y26131D01*
X467516Y26298D01*
X467464Y26444D01*
X467433Y26579D01*
X467423Y26683D01*
X467412Y26725D01*
Y26756D01*
Y26766D01*
Y26777D01*
X467433Y26985D01*
X467475Y27162D01*
X467537Y27329D01*
X467610Y27464D01*
X467683Y27579D01*
X467735Y27662D01*
X467777Y27704D01*
X467798Y27724D01*
X467954Y27850D01*
X468110Y27954D01*
X468266Y28016D01*
X468422Y28068D01*
X468558Y28099D01*
X468662Y28110D01*
X468703Y28120D01*
X468756D01*
X468954Y28099D01*
D02*
G37*
%LPC*%
G36*
X190397Y165252D02*
X188706D01*
X187144Y164605D01*
X185949Y163409D01*
X185302Y161847D01*
Y160156D01*
X185949Y158594D01*
X187144Y157399D01*
X188706Y156752D01*
X190397D01*
X191959Y157399D01*
X193155Y158594D01*
X193802Y160156D01*
Y161847D01*
X193155Y163409D01*
X191959Y164605D01*
X190397Y165252D01*
D02*
G37*
G36*
X41345Y159250D02*
X39655D01*
X38093Y158603D01*
X36897Y157407D01*
X36250Y155845D01*
Y154155D01*
X36897Y152593D01*
X38093Y151397D01*
X39655Y150750D01*
X41345D01*
X42907Y151397D01*
X44103Y152593D01*
X44750Y154155D01*
Y155845D01*
X44103Y157407D01*
X42907Y158603D01*
X41345Y159250D01*
D02*
G37*
G36*
X199847Y155802D02*
X198156D01*
X196594Y155155D01*
X195399Y153959D01*
X194752Y152397D01*
Y150706D01*
X195399Y149144D01*
X196594Y147949D01*
X198156Y147302D01*
X199847D01*
X201409Y147949D01*
X202605Y149144D01*
X203252Y150706D01*
Y152397D01*
X202605Y153959D01*
X201409Y155155D01*
X199847Y155802D01*
D02*
G37*
G36*
X243255Y154645D02*
X241564D01*
X240002Y153998D01*
X238807Y152802D01*
X238160Y151240D01*
Y149550D01*
X238807Y147988D01*
X240002Y146792D01*
X241564Y146145D01*
X243255D01*
X244817Y146792D01*
X246012Y147988D01*
X246660Y149550D01*
Y151240D01*
X246012Y152802D01*
X244817Y153998D01*
X243255Y154645D01*
D02*
G37*
G36*
X252705Y145195D02*
X251014D01*
X249452Y144548D01*
X248257Y143352D01*
X247610Y141790D01*
Y140100D01*
X248257Y138538D01*
X249452Y137342D01*
X251014Y136695D01*
X252705D01*
X254267Y137342D01*
X255462Y138538D01*
X256110Y140100D01*
Y141790D01*
X255462Y143352D01*
X254267Y144548D01*
X252705Y145195D01*
D02*
G37*
G36*
X147829Y144038D02*
X146138D01*
X144576Y143392D01*
X143381Y142196D01*
X142734Y140634D01*
Y138943D01*
X143381Y137381D01*
X144576Y136186D01*
X146138Y135539D01*
X147829D01*
X149391Y136186D01*
X150587Y137381D01*
X151234Y138943D01*
Y140634D01*
X150587Y142196D01*
X149391Y143392D01*
X147829Y144038D01*
D02*
G37*
G36*
X323345Y141750D02*
X321655D01*
X320093Y141103D01*
X318897Y139907D01*
X318250Y138345D01*
Y136655D01*
X318897Y135092D01*
X320093Y133897D01*
X321655Y133250D01*
X323345D01*
X324907Y133897D01*
X326103Y135092D01*
X326750Y136655D01*
Y138345D01*
X326103Y139907D01*
X324907Y141103D01*
X323345Y141750D01*
D02*
G37*
G36*
X64800Y144572D02*
X53800D01*
X51361Y144087D01*
X49294Y142706D01*
X47913Y140639D01*
X47428Y138200D01*
X47913Y135761D01*
X49294Y133694D01*
X51361Y132313D01*
X53800Y131827D01*
X64800D01*
X67239Y132313D01*
X69306Y133694D01*
X70687Y135761D01*
X71172Y138200D01*
X70687Y140639D01*
X69306Y142706D01*
X67239Y144087D01*
X64800Y144572D01*
D02*
G37*
G36*
X21500D02*
X13500D01*
X11061Y144087D01*
X8994Y142706D01*
X7613Y140639D01*
X7128Y138200D01*
X7613Y135761D01*
X8994Y133694D01*
X11061Y132313D01*
X13500Y131827D01*
X21500D01*
X23939Y132313D01*
X26006Y133694D01*
X27387Y135761D01*
X27872Y138200D01*
X27387Y140639D01*
X26006Y142706D01*
X23939Y144087D01*
X21500Y144572D01*
D02*
G37*
G36*
X175845Y131848D02*
X174155D01*
X172593Y131201D01*
X171518Y130126D01*
X171363Y130005D01*
X170033Y129978D01*
X169407Y130603D01*
X167845Y131250D01*
X166155D01*
X164593Y130603D01*
X163397Y129407D01*
X162750Y127845D01*
Y126155D01*
X163397Y124593D01*
X164593Y123397D01*
X166155Y122750D01*
X167845D01*
X169407Y123397D01*
X170483Y124472D01*
X170637Y124593D01*
X171968Y124620D01*
X172593Y123995D01*
X174155Y123348D01*
X175845D01*
X177407Y123995D01*
X178603Y125191D01*
X179250Y126753D01*
Y128444D01*
X178603Y130006D01*
X177407Y131201D01*
X175845Y131848D01*
D02*
G37*
G36*
X138379Y134588D02*
X136688D01*
X135126Y133941D01*
X133931Y132746D01*
X133284Y131184D01*
Y129493D01*
X133931Y127931D01*
X135126Y126735D01*
X136688Y126088D01*
X138379D01*
X139941Y126735D01*
X141137Y127931D01*
X141784Y129493D01*
Y131184D01*
X141137Y132746D01*
X139941Y133941D01*
X138379Y134588D01*
D02*
G37*
G36*
X75295Y131250D02*
X73605D01*
X72043Y130603D01*
X70847Y129407D01*
X70200Y127845D01*
Y126155D01*
X70847Y124593D01*
X72043Y123397D01*
X73605Y122750D01*
X75295D01*
X76857Y123397D01*
X78053Y124593D01*
X78700Y126155D01*
Y127845D01*
X78053Y129407D01*
X76857Y130603D01*
X75295Y131250D01*
D02*
G37*
G36*
X335845Y129250D02*
X334155D01*
X332593Y128603D01*
X331397Y127407D01*
X330750Y125845D01*
Y124155D01*
X331397Y122592D01*
X332593Y121397D01*
X334155Y120750D01*
X335845D01*
X337407Y121397D01*
X338603Y122592D01*
X339250Y124155D01*
Y125845D01*
X338603Y127407D01*
X337407Y128603D01*
X335845Y129250D01*
D02*
G37*
G36*
X310845D02*
X309155D01*
X307593Y128603D01*
X306397Y127407D01*
X305750Y125845D01*
Y124155D01*
X306397Y122592D01*
X307593Y121397D01*
X309155Y120750D01*
X310845D01*
X312407Y121397D01*
X313603Y122592D01*
X314250Y124155D01*
Y125845D01*
X313603Y127407D01*
X312407Y128603D01*
X310845Y129250D01*
D02*
G37*
G36*
X92795Y128150D02*
X91105D01*
X89543Y127503D01*
X88347Y126307D01*
X87700Y124745D01*
Y123055D01*
X88347Y121493D01*
X89543Y120297D01*
X91105Y119650D01*
X92795D01*
X94357Y120297D01*
X95553Y121493D01*
X96200Y123055D01*
Y124745D01*
X95553Y126307D01*
X94357Y127503D01*
X92795Y128150D01*
D02*
G37*
G36*
X55195Y128400D02*
X53405D01*
X51751Y127715D01*
X50485Y126449D01*
X49800Y124795D01*
Y123005D01*
X50485Y121351D01*
X51751Y120085D01*
X53405Y119400D01*
X55195D01*
X56849Y120085D01*
X58115Y121351D01*
X58800Y123005D01*
Y124795D01*
X58115Y126449D01*
X56849Y127715D01*
X55195Y128400D01*
D02*
G37*
G36*
X200845Y114806D02*
X199155D01*
X197593Y114159D01*
X196397Y112964D01*
X195750Y111402D01*
Y109711D01*
X196397Y108149D01*
X197593Y106953D01*
X199155Y106306D01*
X200845D01*
X202407Y106953D01*
X203603Y108149D01*
X204250Y109711D01*
Y111402D01*
X203603Y112964D01*
X202407Y114159D01*
X200845Y114806D01*
D02*
G37*
G36*
X208624Y107028D02*
X206933D01*
X205371Y106381D01*
X204175Y105186D01*
X203528Y103624D01*
Y101933D01*
X204175Y100371D01*
X205371Y99175D01*
X206933Y98528D01*
X208624D01*
X210186Y99175D01*
X211381Y100371D01*
X212028Y101933D01*
Y103624D01*
X211381Y105186D01*
X210186Y106381D01*
X208624Y107028D01*
D02*
G37*
G36*
X193067D02*
X191376D01*
X189814Y106381D01*
X188619Y105186D01*
X187972Y103624D01*
Y101933D01*
X188619Y100371D01*
X189814Y99175D01*
X191376Y98528D01*
X193067D01*
X194629Y99175D01*
X195825Y100371D01*
X196472Y101933D01*
Y103624D01*
X195825Y105186D01*
X194629Y106381D01*
X193067Y107028D01*
D02*
G37*
G36*
X216402Y99250D02*
X214711D01*
X213149Y98603D01*
X211953Y97407D01*
X211306Y95845D01*
Y94155D01*
X211953Y92593D01*
X213149Y91397D01*
X214711Y90750D01*
X216402D01*
X217964Y91397D01*
X219159Y92593D01*
X219806Y94155D01*
Y95845D01*
X219159Y97407D01*
X217964Y98603D01*
X216402Y99250D01*
D02*
G37*
G36*
X200845D02*
X199155D01*
X197593Y98603D01*
X196397Y97407D01*
X195750Y95845D01*
Y94155D01*
X196397Y92593D01*
X197593Y91397D01*
X199155Y90750D01*
X200845D01*
X202407Y91397D01*
X203603Y92593D01*
X204250Y94155D01*
Y95845D01*
X203603Y97407D01*
X202407Y98603D01*
X200845Y99250D01*
D02*
G37*
G36*
X185289D02*
X183598D01*
X182036Y98603D01*
X180841Y97407D01*
X180194Y95845D01*
Y94155D01*
X180841Y92593D01*
X182036Y91397D01*
X183598Y90750D01*
X185289D01*
X186851Y91397D01*
X188047Y92593D01*
X188694Y94155D01*
Y95845D01*
X188047Y97407D01*
X186851Y98603D01*
X185289Y99250D01*
D02*
G37*
G36*
X115845D02*
X114155D01*
X112593Y98603D01*
X111397Y97407D01*
X110750Y95845D01*
Y94155D01*
X111397Y92593D01*
X112593Y91397D01*
X114155Y90750D01*
X115845D01*
X117407Y91397D01*
X118603Y92593D01*
X119250Y94155D01*
Y95845D01*
X118603Y97407D01*
X117407Y98603D01*
X115845Y99250D01*
D02*
G37*
G36*
X208624Y91472D02*
X206933D01*
X205371Y90825D01*
X204175Y89629D01*
X203528Y88067D01*
Y86376D01*
X204175Y84814D01*
X205371Y83619D01*
X206933Y82972D01*
X208624D01*
X210186Y83619D01*
X211381Y84814D01*
X212028Y86376D01*
Y88067D01*
X211381Y89629D01*
X210186Y90825D01*
X208624Y91472D01*
D02*
G37*
G36*
X193067D02*
X191376D01*
X189814Y90825D01*
X188619Y89629D01*
X187972Y88067D01*
Y86376D01*
X188619Y84814D01*
X189814Y83619D01*
X191376Y82972D01*
X193067D01*
X194629Y83619D01*
X195825Y84814D01*
X196472Y86376D01*
Y88067D01*
X195825Y89629D01*
X194629Y90825D01*
X193067Y91472D01*
D02*
G37*
G36*
X270845Y89250D02*
X269155D01*
X267593Y88603D01*
X266397Y87407D01*
X265750Y85845D01*
Y84155D01*
X266397Y82593D01*
X267593Y81397D01*
X269155Y80750D01*
X270845D01*
X272407Y81397D01*
X273603Y82593D01*
X274250Y84155D01*
Y85845D01*
X273603Y87407D01*
X272407Y88603D01*
X270845Y89250D01*
D02*
G37*
G36*
X200845Y83694D02*
X199155D01*
X197593Y83047D01*
X196397Y81851D01*
X195750Y80289D01*
Y78598D01*
X196397Y77036D01*
X197593Y75841D01*
X199155Y75194D01*
X200845D01*
X202407Y75841D01*
X203603Y77036D01*
X204250Y78598D01*
Y80289D01*
X203603Y81851D01*
X202407Y83047D01*
X200845Y83694D01*
D02*
G37*
G36*
X109195Y81750D02*
X107505D01*
X105943Y81103D01*
X104747Y79907D01*
X104100Y78345D01*
Y76655D01*
X104747Y75093D01*
X105943Y73897D01*
X107505Y73250D01*
X109195D01*
X110758Y73897D01*
X111953Y75093D01*
X112600Y76655D01*
Y78345D01*
X111953Y79907D01*
X110758Y81103D01*
X109195Y81750D01*
D02*
G37*
G36*
X55195Y70600D02*
X53405D01*
X51751Y69915D01*
X50485Y68649D01*
X49800Y66995D01*
Y65205D01*
X50485Y63551D01*
X51751Y62285D01*
X53405Y61600D01*
X55195D01*
X56849Y62285D01*
X58115Y63551D01*
X58800Y65205D01*
Y66995D01*
X58115Y68649D01*
X56849Y69915D01*
X55195Y70600D01*
D02*
G37*
G36*
X270845Y69250D02*
X269155D01*
X267593Y68603D01*
X266397Y67407D01*
X265750Y65845D01*
Y64155D01*
X266397Y62593D01*
X267593Y61397D01*
X269155Y60750D01*
X270845D01*
X272407Y61397D01*
X273603Y62593D01*
X274250Y64155D01*
Y65845D01*
X273603Y67407D01*
X272407Y68603D01*
X270845Y69250D01*
D02*
G37*
G36*
X169845D02*
X168155D01*
X166593Y68603D01*
X165397Y67407D01*
X164750Y65845D01*
Y64155D01*
X165397Y62593D01*
X166593Y61397D01*
X168155Y60750D01*
X169845D01*
X171407Y61397D01*
X172603Y62593D01*
X173250Y64155D01*
Y65845D01*
X172603Y67407D01*
X171407Y68603D01*
X169845Y69250D01*
D02*
G37*
G36*
X73845Y62250D02*
X72155D01*
X70593Y61603D01*
X69397Y60407D01*
X68750Y58845D01*
Y58181D01*
X67500Y57513D01*
X67239Y57687D01*
X64800Y58172D01*
X53800D01*
X51361Y57687D01*
X49294Y56306D01*
X47913Y54239D01*
X47428Y51800D01*
X47913Y49361D01*
X49294Y47294D01*
X51361Y45913D01*
X53800Y45427D01*
X64800D01*
X67239Y45913D01*
X69306Y47294D01*
X70687Y49361D01*
X71172Y51800D01*
X70955Y52894D01*
X72050Y53793D01*
X72155Y53750D01*
X73845D01*
X75407Y54397D01*
X76603Y55593D01*
X77250Y57155D01*
Y58845D01*
X76603Y60407D01*
X75407Y61603D01*
X73845Y62250D01*
D02*
G37*
G36*
X188845D02*
X187155D01*
X185593Y61603D01*
X184397Y60407D01*
X183750Y58845D01*
Y57155D01*
X184397Y55593D01*
X185593Y54397D01*
X187155Y53750D01*
X188845D01*
X190407Y54397D01*
X191603Y55593D01*
X192250Y57155D01*
Y58845D01*
X191603Y60407D01*
X190407Y61603D01*
X188845Y62250D01*
D02*
G37*
G36*
X199343Y62215D02*
X197652D01*
X196090Y61568D01*
X194894Y60373D01*
X194247Y58811D01*
Y57120D01*
X194894Y55558D01*
X196090Y54362D01*
X197652Y53715D01*
X199343D01*
X200905Y54362D01*
X202100Y55558D01*
X202747Y57120D01*
Y58811D01*
X202100Y60373D01*
X200905Y61568D01*
X199343Y62215D01*
D02*
G37*
G36*
X21500Y58172D02*
X13500D01*
X11061Y57687D01*
X8994Y56306D01*
X7613Y54239D01*
X7128Y51800D01*
X7613Y49361D01*
X8994Y47294D01*
X11061Y45913D01*
X13500Y45427D01*
X21500D01*
X23939Y45913D01*
X26006Y47294D01*
X27387Y49361D01*
X27872Y51800D01*
X27387Y54239D01*
X26006Y56306D01*
X23939Y57687D01*
X21500Y58172D01*
D02*
G37*
G36*
X193845Y42220D02*
X192155D01*
X190593Y41573D01*
X189397Y40377D01*
X188750Y38815D01*
Y37125D01*
X189040Y36425D01*
X188083Y35468D01*
X187765Y35600D01*
X186075D01*
X184513Y34953D01*
X183317Y33757D01*
X182670Y32195D01*
Y30505D01*
X183317Y28943D01*
X184513Y27747D01*
X186075Y27100D01*
X187765D01*
X189327Y27747D01*
X190523Y28943D01*
X191170Y30505D01*
Y32195D01*
X190880Y32895D01*
X191837Y33851D01*
X192155Y33720D01*
X193845D01*
X195407Y34367D01*
X196603Y35563D01*
X197250Y37125D01*
Y38815D01*
X196603Y40377D01*
X195407Y41573D01*
X193845Y42220D01*
D02*
G37*
G36*
X175364Y40910D02*
X173076D01*
X170963Y40035D01*
X169345Y38417D01*
X168470Y36304D01*
Y34016D01*
X169345Y31903D01*
X170963Y30285D01*
X173076Y29410D01*
X175364D01*
X177477Y30285D01*
X179095Y31903D01*
X179970Y34016D01*
Y36304D01*
X179095Y38417D01*
X177477Y40035D01*
X175364Y40910D01*
D02*
G37*
G36*
X226164Y30750D02*
X223876D01*
X221763Y29875D01*
X220145Y28257D01*
X219270Y26144D01*
Y23856D01*
X220145Y21743D01*
X221763Y20125D01*
X223876Y19250D01*
X226164D01*
X228277Y20125D01*
X229895Y21743D01*
X230770Y23856D01*
Y26144D01*
X229895Y28257D01*
X228277Y29875D01*
X226164Y30750D01*
D02*
G37*
G36*
X39845Y21700D02*
X38155D01*
X36593Y21053D01*
X35397Y19857D01*
X34750Y18295D01*
Y16605D01*
X35397Y15043D01*
X36593Y13847D01*
X38155Y13200D01*
X39845D01*
X41407Y13847D01*
X42603Y15043D01*
X43250Y16605D01*
Y18295D01*
X42603Y19857D01*
X41407Y21053D01*
X39845Y21700D01*
D02*
G37*
G36*
X175364Y20590D02*
X173076D01*
X170963Y19715D01*
X169345Y18097D01*
X168470Y15984D01*
Y13696D01*
X169345Y11583D01*
X170963Y9965D01*
X173076Y9090D01*
X175364D01*
X177477Y9965D01*
X179095Y11583D01*
X179970Y13696D01*
Y15984D01*
X179095Y18097D01*
X177477Y19715D01*
X175364Y20590D01*
D02*
G37*
G36*
X213165Y14630D02*
X211474D01*
X209912Y13983D01*
X208717Y12787D01*
X208070Y11226D01*
Y9535D01*
X208717Y7973D01*
X209912Y6777D01*
X211474Y6130D01*
X213165D01*
X214727Y6777D01*
X215923Y7973D01*
X216570Y9535D01*
Y11226D01*
X215923Y12787D01*
X214727Y13983D01*
X213165Y14630D01*
D02*
G37*
G36*
X200465D02*
X198775D01*
X197213Y13983D01*
X196017Y12787D01*
X195370Y11226D01*
Y9535D01*
X196017Y7973D01*
X197213Y6777D01*
X198775Y6130D01*
X200465D01*
X202027Y6777D01*
X203223Y7973D01*
X203870Y9535D01*
Y11226D01*
X203223Y12787D01*
X202027Y13983D01*
X200465Y14630D01*
D02*
G37*
G36*
X49895Y12250D02*
X48205D01*
X46642Y11603D01*
X45447Y10407D01*
X44800Y8845D01*
Y7155D01*
X45447Y5593D01*
X46642Y4397D01*
X48205Y3750D01*
X49895D01*
X51457Y4397D01*
X52653Y5593D01*
X53300Y7155D01*
Y8845D01*
X52653Y10407D01*
X51457Y11603D01*
X49895Y12250D01*
D02*
G37*
G36*
X12845D02*
X11155D01*
X9593Y11603D01*
X8397Y10407D01*
X7750Y8845D01*
Y7155D01*
X8397Y5593D01*
X9593Y4397D01*
X11155Y3750D01*
X12845D01*
X14407Y4397D01*
X15603Y5593D01*
X16250Y7155D01*
Y8845D01*
X15603Y10407D01*
X14407Y11603D01*
X12845Y12250D01*
D02*
G37*
G36*
X493354Y32432D02*
X492677D01*
Y27558D01*
X493176D01*
X493322Y27568D01*
X493447D01*
X493551Y27579D01*
X493635Y27589D01*
X493697D01*
X493728Y27600D01*
X493739D01*
X493916Y27641D01*
X493999Y27662D01*
X494062Y27683D01*
X494124Y27693D01*
X494166Y27714D01*
X494187Y27724D01*
X494197D01*
X494416Y27818D01*
X494624Y27933D01*
X494801Y28047D01*
X494947Y28172D01*
X495072Y28287D01*
X495165Y28381D01*
X495218Y28443D01*
X495238Y28454D01*
Y28464D01*
X495311Y28568D01*
X495384Y28683D01*
X495488Y28933D01*
X495572Y29183D01*
X495624Y29432D01*
X495645Y29547D01*
X495655Y29651D01*
X495665Y29745D01*
X495676Y29828D01*
X495686Y29901D01*
Y29953D01*
Y29984D01*
Y29995D01*
X495676Y30213D01*
X495645Y30411D01*
X495613Y30599D01*
X495561Y30776D01*
X495509Y30932D01*
X495447Y31078D01*
X495384Y31213D01*
X495322Y31338D01*
X495259Y31442D01*
X495197Y31536D01*
X495134Y31619D01*
X495082Y31682D01*
X495041Y31734D01*
X495009Y31765D01*
X494989Y31786D01*
X494978Y31796D01*
X494853Y31911D01*
X494718Y32005D01*
X494572Y32088D01*
X494426Y32161D01*
X494280Y32223D01*
X494134Y32275D01*
X493864Y32348D01*
X493739Y32380D01*
X493624Y32400D01*
X493520Y32411D01*
X493426Y32421D01*
X493354Y32432D01*
D02*
G37*
%LPD*%
D51*
X225020Y25000D02*
D03*
X174220Y14840D02*
D03*
Y35160D02*
D03*
D61*
X17500Y51800D02*
D03*
Y138200D02*
D03*
D62*
X59300Y51800D02*
D03*
Y138200D02*
D03*
D63*
X54300Y123900D02*
D03*
Y66100D02*
D03*
D64*
X357000Y165000D02*
D03*
X357000Y180000D02*
D03*
X251859Y140945D02*
D03*
X242409Y150395D02*
D03*
X137534Y130338D02*
D03*
X189552Y161002D02*
D03*
X199002Y151552D02*
D03*
X146984Y139789D02*
D03*
X74450Y127000D02*
D03*
X91950Y123900D02*
D03*
X108350Y77500D02*
D03*
X130350Y57000D02*
D03*
Y72000D02*
D03*
X92000Y25050D02*
D03*
X135450Y32550D02*
D03*
X126000Y42000D02*
D03*
X110000D02*
D03*
X92000Y43950D02*
D03*
X220000Y39000D02*
D03*
X186920Y31350D02*
D03*
X193000Y37970D02*
D03*
X198497Y57965D02*
D03*
X188000Y58000D02*
D03*
X212320Y10380D02*
D03*
X199620D02*
D03*
X169000Y65000D02*
D03*
X270000D02*
D03*
Y85000D02*
D03*
X175000Y127598D02*
D03*
X167000Y127000D02*
D03*
X223821Y122357D02*
D03*
X165572Y111750D02*
D03*
X335000Y105000D02*
D03*
X310000D02*
D03*
X322500Y137500D02*
D03*
X310000Y125000D02*
D03*
X335000D02*
D03*
X207778Y102778D02*
D03*
X200000Y110556D02*
D03*
X192222Y102778D02*
D03*
X115000Y95000D02*
D03*
X200000D02*
D03*
X215556D02*
D03*
X192222Y87222D02*
D03*
X207778D02*
D03*
X200000Y79444D02*
D03*
X184444Y95000D02*
D03*
X73000Y58000D02*
D03*
X40500Y155000D02*
D03*
X39000Y17450D02*
D03*
X49050Y8000D02*
D03*
X28000Y7350D02*
D03*
X12000Y8000D02*
D03*
M02*
