G04*
G04 #@! TF.GenerationSoftware,Altium Limited,Altium Designer,26.7.1 (11)*
G04*
G04 Layer_Color=128*
G04 Board_Origin=10000000|10000000*
%FSLAX44Y44*%
%MOMM*%
G71*
G04*
G04 #@! TF.SameCoordinates,01AF191F-086B-4CA7-9458-D37D5C4D2032*
G04*
G04*
G04 #@! TF.FilePolarity,Positive*
G04*
G01*
G75*
%ADD15C,0.1270*%
D15*
X220520Y25000D02*
X229520D01*
X225020Y20500D02*
Y29500D01*
X169720Y14840D02*
X178720D01*
X174220Y10340D02*
Y19340D01*
X169720Y35160D02*
X178720D01*
X174220Y30660D02*
Y39660D01*
X14500Y51800D02*
X20500D01*
X17500Y48800D02*
Y54800D01*
X14500Y138200D02*
X20500D01*
X17500Y135200D02*
Y141200D01*
X56300Y51800D02*
X62300D01*
X59300Y48800D02*
Y54800D01*
X56300Y138200D02*
X62300D01*
X59300Y135200D02*
Y141200D01*
X51050Y123900D02*
X57550D01*
X54300Y120650D02*
Y127150D01*
X51050Y66100D02*
X57550D01*
X54300Y62850D02*
Y69350D01*
X355500Y165000D02*
X358500D01*
X357000Y163500D02*
Y166500D01*
X355500Y180000D02*
X358500D01*
X357000Y178500D02*
Y181500D01*
X250359Y140945D02*
X253360D01*
X251859Y139445D02*
Y142445D01*
X240910Y150395D02*
X243909D01*
X242409Y148895D02*
Y151895D01*
X136034Y130338D02*
X139034D01*
X137534Y128839D02*
Y131839D01*
X188052Y161002D02*
X191052D01*
X189552Y159502D02*
Y162502D01*
X197502Y151552D02*
X200502D01*
X199002Y150052D02*
Y153052D01*
X145484Y139789D02*
X148484D01*
X146984Y138288D02*
Y141288D01*
X72950Y127000D02*
X75950D01*
X74450Y125500D02*
Y128500D01*
X90450Y123900D02*
X93450D01*
X91950Y122400D02*
Y125400D01*
X106850Y77500D02*
X109850D01*
X108350Y76000D02*
Y79000D01*
X128850Y57000D02*
X131850D01*
X130350Y55500D02*
Y58500D01*
X128850Y72000D02*
X131850D01*
X130350Y70500D02*
Y73500D01*
X90500Y25050D02*
X93500D01*
X92000Y23550D02*
Y26550D01*
X133950Y32550D02*
X136950D01*
X135450Y31050D02*
Y34050D01*
X124500Y42000D02*
X127500D01*
X126000Y40500D02*
Y43500D01*
X108500Y42000D02*
X111500D01*
X110000Y40500D02*
Y43500D01*
X90500Y43950D02*
X93500D01*
X92000Y42450D02*
Y45450D01*
X218500Y39000D02*
X221500D01*
X220000Y37500D02*
Y40500D01*
X185420Y31350D02*
X188420D01*
X186920Y29850D02*
Y32850D01*
X191500Y37970D02*
X194500D01*
X193000Y36470D02*
Y39470D01*
X196997Y57965D02*
X199997D01*
X198497Y56465D02*
Y59465D01*
X186500Y58000D02*
X189500D01*
X188000Y56500D02*
Y59500D01*
X210820Y10380D02*
X213820D01*
X212320Y8880D02*
Y11880D01*
X198120Y10380D02*
X201120D01*
X199620Y8880D02*
Y11880D01*
X167500Y65000D02*
X170500D01*
X169000Y63500D02*
Y66500D01*
X268500Y65000D02*
X271500D01*
X270000Y63500D02*
Y66500D01*
X268500Y85000D02*
X271500D01*
X270000Y83500D02*
Y86500D01*
X173500Y127598D02*
X176500D01*
X175000Y126098D02*
Y129098D01*
X165500Y127000D02*
X168500D01*
X167000Y125500D02*
Y128500D01*
X222321Y122357D02*
X225321D01*
X223821Y120857D02*
Y123857D01*
X164072Y111750D02*
X167072D01*
X165572Y110250D02*
Y113250D01*
X333500Y105000D02*
X336500D01*
X335000Y103500D02*
Y106500D01*
X308500Y105000D02*
X311500D01*
X310000Y103500D02*
Y106500D01*
X321000Y137500D02*
X324000D01*
X322500Y136000D02*
Y139000D01*
X308500Y125000D02*
X311500D01*
X310000Y123500D02*
Y126500D01*
X333500Y125000D02*
X336500D01*
X335000Y123500D02*
Y126500D01*
X206278Y102778D02*
X209278D01*
X207778Y101278D02*
Y104278D01*
X198500Y110556D02*
X201500D01*
X200000Y109056D02*
Y112056D01*
X190722Y102778D02*
X193722D01*
X192222Y101278D02*
Y104278D01*
X113500Y95000D02*
X116500D01*
X115000Y93500D02*
Y96500D01*
X198500Y95000D02*
X201500D01*
X200000Y93500D02*
Y96500D01*
X214056Y95000D02*
X217056D01*
X215556Y93500D02*
Y96500D01*
X190722Y87222D02*
X193722D01*
X192222Y85722D02*
Y88722D01*
X206278Y87222D02*
X209278D01*
X207778Y85722D02*
Y88722D01*
X198500Y79444D02*
X201500D01*
X200000Y77944D02*
Y80944D01*
X182944Y95000D02*
X185944D01*
X184444Y93500D02*
Y96500D01*
X71500Y58000D02*
X74500D01*
X73000Y56500D02*
Y59500D01*
X39000Y155000D02*
X42000D01*
X40500Y153500D02*
Y156500D01*
X37500Y17450D02*
X40500D01*
X39000Y15950D02*
Y18950D01*
X47550Y8000D02*
X50550D01*
X49050Y6500D02*
Y9500D01*
X26500Y7350D02*
X29500D01*
X28000Y5850D02*
Y8850D01*
X10500Y8000D02*
X13500D01*
X12000Y6500D02*
Y9500D01*
M02*
