G04*
G04 #@! TF.GenerationSoftware,Altium Limited,Altium Designer,26.7.1 (11)*
G04*
G04 Layer_Color=7318015*
G04 Board_Origin=10000000|10000000*
%FSLAX44Y44*%
%MOMM*%
G71*
G04*
G04 #@! TF.SameCoordinates,01AF191F-086B-4CA7-9458-D37D5C4D2032*
G04*
G04*
G04 #@! TF.FilePolarity,Positive*
G04*
G01*
G75*
%ADD16R,1.4500X1.1000*%
%ADD17R,2.9000X2.0000*%
%ADD18R,0.7900X0.9300*%
G04:AMPARAMS|DCode=19|XSize=0.93mm|YSize=0.92mm|CornerRadius=0mm|HoleSize=0mm|Usage=FLASHONLY|Rotation=135.000|XOffset=0mm|YOffset=0mm|HoleType=Round|Shape=Rectangle|*
%AMROTATEDRECTD19*
4,1,4,0.6541,-0.0035,0.0035,-0.6541,-0.6541,0.0035,-0.0035,0.6541,0.6541,-0.0035,0.0*
%
%ADD19ROTATEDRECTD19*%

G04:AMPARAMS|DCode=20|XSize=0.3mm|YSize=1mm|CornerRadius=0mm|HoleSize=0mm|Usage=FLASHONLY|Rotation=315.000|XOffset=0mm|YOffset=0mm|HoleType=Round|Shape=Round|*
%AMOVALD20*
21,1,0.7000,0.3000,0.0000,0.0000,45.0*
1,1,0.3000,-0.2475,-0.2475*
1,1,0.3000,0.2475,0.2475*
%
%ADD20OVALD20*%

G04:AMPARAMS|DCode=21|XSize=0.3mm|YSize=1mm|CornerRadius=0mm|HoleSize=0mm|Usage=FLASHONLY|Rotation=45.000|XOffset=0mm|YOffset=0mm|HoleType=Round|Shape=Round|*
%AMOVALD21*
21,1,0.7000,0.3000,0.0000,0.0000,135.0*
1,1,0.3000,0.2475,-0.2475*
1,1,0.3000,-0.2475,0.2475*
%
%ADD21OVALD21*%

%ADD22R,0.9300X0.7900*%
G04:AMPARAMS|DCode=23|XSize=0.93mm|YSize=0.92mm|CornerRadius=0mm|HoleSize=0mm|Usage=FLASHONLY|Rotation=225.000|XOffset=0mm|YOffset=0mm|HoleType=Round|Shape=Rectangle|*
%AMROTATEDRECTD23*
4,1,4,0.0035,0.6541,0.6541,0.0035,-0.0035,-0.6541,-0.6541,-0.0035,0.0035,0.6541,0.0*
%
%ADD23ROTATEDRECTD23*%

%ADD24P,4.8083X4X360.0*%
%ADD25R,0.8000X0.4000*%
%ADD26R,0.9300X0.9200*%
%ADD27R,1.1400X0.6000*%
G04:AMPARAMS|DCode=28|XSize=0.6mm|YSize=1mm|CornerRadius=0.075mm|HoleSize=0mm|Usage=FLASHONLY|Rotation=270.000|XOffset=0mm|YOffset=0mm|HoleType=Round|Shape=RoundedRectangle|*
%AMROUNDEDRECTD28*
21,1,0.6000,0.8500,0,0,270.0*
21,1,0.4500,1.0000,0,0,270.0*
1,1,0.1500,-0.4250,-0.2250*
1,1,0.1500,-0.4250,0.2250*
1,1,0.1500,0.4250,0.2250*
1,1,0.1500,0.4250,-0.2250*
%
%ADD28ROUNDEDRECTD28*%
G04:AMPARAMS|DCode=29|XSize=0.8mm|YSize=0.8mm|CornerRadius=0.1mm|HoleSize=0mm|Usage=FLASHONLY|Rotation=0.000|XOffset=0mm|YOffset=0mm|HoleType=Round|Shape=RoundedRectangle|*
%AMROUNDEDRECTD29*
21,1,0.8000,0.6000,0,0,0.0*
21,1,0.6000,0.8000,0,0,0.0*
1,1,0.2000,0.3000,-0.3000*
1,1,0.2000,-0.3000,-0.3000*
1,1,0.2000,-0.3000,0.3000*
1,1,0.2000,0.3000,0.3000*
%
%ADD29ROUNDEDRECTD29*%
G04:AMPARAMS|DCode=30|XSize=0.93mm|YSize=0.79mm|CornerRadius=0mm|HoleSize=0mm|Usage=FLASHONLY|Rotation=315.000|XOffset=0mm|YOffset=0mm|HoleType=Round|Shape=Rectangle|*
%AMROTATEDRECTD30*
4,1,4,-0.6081,0.0495,-0.0495,0.6081,0.6081,-0.0495,0.0495,-0.6081,-0.6081,0.0495,0.0*
%
%ADD30ROTATEDRECTD30*%

%ADD31R,0.7000X0.4000*%
%ADD32R,1.1400X0.3000*%
D16*
X322500Y125000D02*
D03*
Y105000D02*
D03*
Y85000D02*
D03*
Y65000D02*
D03*
D17*
X382250Y36050D02*
D03*
Y153950D02*
D03*
D18*
X295000Y65000D02*
D03*
Y85000D02*
D03*
X98900Y77500D02*
D03*
X33200Y171000D02*
D03*
X16800D02*
D03*
X139800Y57000D02*
D03*
X156200D02*
D03*
X278600Y65000D02*
D03*
Y85000D02*
D03*
X82500Y77500D02*
D03*
X139800Y72000D02*
D03*
X156200D02*
D03*
D19*
X242409Y140945D02*
D03*
X189552Y151552D02*
D03*
X178874Y140874D02*
D03*
X231732Y130268D02*
D03*
D20*
X212374Y117981D02*
D03*
X205303Y125052D02*
D03*
X208839Y121517D02*
D03*
X215910Y114445D02*
D03*
X219445Y110910D02*
D03*
X222981Y107374D02*
D03*
X226516Y103839D02*
D03*
X230052Y100303D02*
D03*
X194697Y64948D02*
D03*
X191161Y68484D02*
D03*
X187626Y72019D02*
D03*
X184090Y75555D02*
D03*
X180555Y79090D02*
D03*
X177019Y82626D02*
D03*
X173484Y86161D02*
D03*
X169948Y89697D02*
D03*
D21*
X184090Y114445D02*
D03*
X230052Y89697D02*
D03*
X226516Y86161D02*
D03*
X222981Y82626D02*
D03*
X219445Y79090D02*
D03*
X215910Y75555D02*
D03*
X212374Y72019D02*
D03*
X208839Y68484D02*
D03*
X205303Y64948D02*
D03*
X169948Y100303D02*
D03*
X173484Y103839D02*
D03*
X177019Y107374D02*
D03*
X180555Y110910D02*
D03*
X187626Y117981D02*
D03*
X191161Y121517D02*
D03*
X194697Y125052D02*
D03*
D22*
X82500Y123900D02*
D03*
X28000Y16800D02*
D03*
X82500Y107500D02*
D03*
X28000Y33200D02*
D03*
D23*
X146984Y130338D02*
D03*
X157661Y119661D02*
D03*
D24*
X200000Y95000D02*
D03*
D25*
X106000D02*
D03*
D26*
X110000Y17450D02*
D03*
X126000D02*
D03*
X49000D02*
D03*
X12000D02*
D03*
X49000Y32550D02*
D03*
X126000D02*
D03*
X110000D02*
D03*
X12000D02*
D03*
D27*
X65000Y127000D02*
D03*
Y63000D02*
D03*
Y71000D02*
D03*
Y119000D02*
D03*
D28*
X66000Y25000D02*
D03*
X92000Y34500D02*
D03*
X66000Y15500D02*
D03*
Y34500D02*
D03*
X92000Y15500D02*
D03*
D29*
X33500Y155000D02*
D03*
X328500Y180000D02*
D03*
X345500D02*
D03*
X328500Y165000D02*
D03*
X345500D02*
D03*
X16500Y155000D02*
D03*
D30*
X274202Y144202D02*
D03*
X285798Y155798D02*
D03*
X285202Y133202D02*
D03*
X296798Y144798D02*
D03*
D31*
X124000Y88500D02*
D03*
Y101500D02*
D03*
D32*
X65000Y112500D02*
D03*
Y77500D02*
D03*
Y107500D02*
D03*
Y82500D02*
D03*
Y102500D02*
D03*
Y87500D02*
D03*
Y97500D02*
D03*
Y92500D02*
D03*
M02*
