G04*
G04 #@! TF.GenerationSoftware,Altium Limited,Altium Designer,26.7.1 (11)*
G04*
G04 Layer_Physical_Order=2*
G04 Layer_Color=16765976*
G04 Board_Origin=10000000|10000000*
%FSLAX44Y44*%
%MOMM*%
G71*
G04*
G04 #@! TF.SameCoordinates,01AF191F-086B-4CA7-9458-D37D5C4D2032*
G04*
G04*
G04 #@! TF.FilePolarity,Positive*
G04*
G01*
G75*
%ADD51C,0.8500*%
%ADD61O,1.8000X1.0000*%
%ADD62O,2.1000X1.0000*%
%ADD63C,0.6500*%
%ADD64C,0.6000*%
G36*
X397706Y2294D02*
X2294D01*
Y187706D01*
X397706D01*
Y2294D01*
D02*
G37*
G36*
X485751Y10605D02*
X483502D01*
X482867Y15594D01*
X482846D01*
X480763Y10605D01*
X479867D01*
X477878Y15594D01*
X477857D01*
X477128Y10605D01*
X474889D01*
X476358Y19270D01*
X478576D01*
X480336Y14635D01*
X482200Y19270D01*
X484439D01*
X485751Y10605D01*
D02*
G37*
G36*
X468954Y16906D02*
X469141Y16864D01*
X469297Y16802D01*
X469432Y16729D01*
X469547Y16656D01*
X469630Y16604D01*
X469672Y16562D01*
X469693Y16541D01*
X469818Y16395D01*
X469922Y16239D01*
X469985Y16073D01*
X470037Y15927D01*
X470068Y15791D01*
X470078Y15687D01*
X470089Y15646D01*
Y15614D01*
Y15604D01*
Y15594D01*
X470068Y15385D01*
X470026Y15198D01*
X469964Y15031D01*
X469891Y14896D01*
X469818Y14781D01*
X469755Y14708D01*
X469714Y14656D01*
X469693Y14635D01*
X469547Y14511D01*
X469380Y14417D01*
X469224Y14354D01*
X469078Y14302D01*
X468954Y14271D01*
X468849Y14261D01*
X468808Y14250D01*
X468756D01*
X468547Y14271D01*
X468360Y14313D01*
X468193Y14375D01*
X468058Y14448D01*
X467943Y14521D01*
X467870Y14573D01*
X467818Y14615D01*
X467798Y14635D01*
X467673Y14781D01*
X467579Y14948D01*
X467516Y15104D01*
X467464Y15260D01*
X467433Y15385D01*
X467423Y15500D01*
X467412Y15541D01*
Y15573D01*
Y15583D01*
Y15594D01*
X467433Y15802D01*
X467475Y15979D01*
X467537Y16145D01*
X467610Y16281D01*
X467683Y16395D01*
X467735Y16479D01*
X467777Y16520D01*
X467798Y16541D01*
X467954Y16666D01*
X468110Y16760D01*
X468266Y16833D01*
X468422Y16875D01*
X468558Y16906D01*
X468662Y16916D01*
X468703Y16927D01*
X468756D01*
X468954Y16906D01*
D02*
G37*
G36*
X507621Y10605D02*
X505382D01*
Y17374D01*
X504132D01*
Y19270D01*
X507621D01*
Y10605D01*
D02*
G37*
G36*
X493874Y19259D02*
X494093Y19239D01*
X494509Y19176D01*
X494697Y19124D01*
X494884Y19082D01*
X495051Y19020D01*
X495207Y18968D01*
X495353Y18916D01*
X495478Y18864D01*
X495592Y18812D01*
X495686Y18770D01*
X495759Y18728D01*
X495811Y18697D01*
X495842Y18687D01*
X495853Y18676D01*
X496207Y18447D01*
X496363Y18322D01*
X496519Y18197D01*
X496655Y18062D01*
X496790Y17937D01*
X496905Y17812D01*
X497009Y17687D01*
X497103Y17572D01*
X497186Y17468D01*
X497259Y17374D01*
X497321Y17291D01*
X497363Y17218D01*
X497394Y17166D01*
X497415Y17135D01*
X497425Y17125D01*
X497529Y16937D01*
X497623Y16750D01*
X497696Y16562D01*
X497769Y16375D01*
X497873Y16000D01*
X497904Y15833D01*
X497946Y15667D01*
X497967Y15510D01*
X497988Y15375D01*
X497998Y15250D01*
X498008Y15146D01*
X498019Y15052D01*
Y14990D01*
Y14948D01*
Y14937D01*
X498008Y14719D01*
X497988Y14500D01*
X497925Y14084D01*
X497873Y13896D01*
X497831Y13719D01*
X497769Y13542D01*
X497717Y13396D01*
X497665Y13250D01*
X497613Y13125D01*
X497561Y13011D01*
X497519Y12928D01*
X497477Y12844D01*
X497446Y12792D01*
X497436Y12761D01*
X497425Y12751D01*
X497186Y12407D01*
X496936Y12095D01*
X496800Y11959D01*
X496675Y11824D01*
X496540Y11709D01*
X496426Y11605D01*
X496301Y11511D01*
X496197Y11428D01*
X496103Y11355D01*
X496020Y11293D01*
X495947Y11251D01*
X495895Y11220D01*
X495863Y11199D01*
X495853Y11188D01*
X495665Y11084D01*
X495478Y11001D01*
X495280Y10918D01*
X495093Y10855D01*
X494718Y10751D01*
X494541Y10709D01*
X494364Y10678D01*
X494207Y10657D01*
X494072Y10637D01*
X493947Y10626D01*
X493833Y10616D01*
X493749Y10605D01*
X490438D01*
Y19270D01*
X493645D01*
X493874Y19259D01*
D02*
G37*
G36*
X488948Y10605D02*
X486709D01*
Y19270D01*
X488948D01*
Y10605D01*
D02*
G37*
G36*
X459196Y19593D02*
X459508Y19551D01*
X459800Y19488D01*
X459925Y19457D01*
X460050Y19426D01*
X460154Y19384D01*
X460258Y19353D01*
X460341Y19322D01*
X460404Y19291D01*
X460466Y19259D01*
X460508Y19249D01*
X460528Y19228D01*
X460539D01*
X460810Y19072D01*
X461049Y18905D01*
X461247Y18728D01*
X461424Y18562D01*
X461559Y18405D01*
X461653Y18280D01*
X461695Y18228D01*
X461716Y18197D01*
X461737Y18176D01*
Y18166D01*
X461882Y17895D01*
X461997Y17624D01*
X462080Y17354D01*
X462132Y17093D01*
X462153Y16979D01*
X462164Y16875D01*
X462174Y16781D01*
X462184Y16697D01*
X462195Y16635D01*
Y16583D01*
Y16552D01*
Y16541D01*
X462184Y16302D01*
X462174Y16198D01*
Y16114D01*
X462164Y16031D01*
X462153Y15979D01*
X462143Y15937D01*
Y15927D01*
X462101Y15729D01*
X462080Y15635D01*
X462059Y15562D01*
X462049Y15500D01*
X462028Y15448D01*
X462018Y15417D01*
Y15406D01*
X461955Y15239D01*
X461882Y15083D01*
X461810Y14948D01*
X461726Y14823D01*
X461664Y14719D01*
X461612Y14635D01*
X461570Y14594D01*
X461559Y14573D01*
X461435Y14417D01*
X461289Y14261D01*
X461133Y14104D01*
X460987Y13948D01*
X460851Y13813D01*
X460747Y13709D01*
X460706Y13667D01*
X460674Y13636D01*
X460653Y13625D01*
X460643Y13615D01*
X459456Y12501D01*
X462289D01*
Y10605D01*
X455322D01*
X458862Y14448D01*
X459029Y14635D01*
X459164Y14823D01*
X459289Y15000D01*
X459393Y15167D01*
X459477Y15302D01*
X459529Y15406D01*
X459550Y15448D01*
X459571Y15479D01*
X459581Y15489D01*
Y15500D01*
X459675Y15708D01*
X459737Y15906D01*
X459789Y16093D01*
X459820Y16250D01*
X459841Y16385D01*
X459852Y16489D01*
X459862Y16531D01*
Y16562D01*
Y16573D01*
Y16583D01*
X459852Y16750D01*
X459810Y16906D01*
X459768Y17041D01*
X459716Y17156D01*
X459664Y17249D01*
X459612Y17312D01*
X459581Y17364D01*
X459571Y17374D01*
X459456Y17478D01*
X459341Y17562D01*
X459227Y17624D01*
X459112Y17666D01*
X459008Y17697D01*
X458935Y17708D01*
X458883Y17718D01*
X458862D01*
X458706Y17697D01*
X458571Y17666D01*
X458456Y17614D01*
X458362Y17562D01*
X458279Y17510D01*
X458227Y17458D01*
X458185Y17427D01*
X458175Y17416D01*
X458092Y17301D01*
X458029Y17177D01*
X457988Y17052D01*
X457956Y16927D01*
X457935Y16822D01*
X457925Y16739D01*
X457915Y16677D01*
Y16666D01*
Y16656D01*
Y16583D01*
X457925Y16531D01*
Y16489D01*
Y16468D01*
X457935Y16395D01*
X457946Y16343D01*
X457956Y16302D01*
Y16281D01*
X455478D01*
X455499Y16573D01*
X455540Y16833D01*
X455592Y17093D01*
X455665Y17322D01*
X455738Y17541D01*
X455821Y17749D01*
X455905Y17926D01*
X455998Y18093D01*
X456082Y18239D01*
X456165Y18364D01*
X456248Y18478D01*
X456311Y18572D01*
X456373Y18635D01*
X456415Y18687D01*
X456446Y18718D01*
X456457Y18728D01*
X456634Y18884D01*
X456821Y19020D01*
X457019Y19134D01*
X457217Y19239D01*
X457415Y19322D01*
X457613Y19395D01*
X457811Y19447D01*
X457998Y19499D01*
X458175Y19540D01*
X458331Y19561D01*
X458477Y19582D01*
X458602Y19603D01*
X458706D01*
X458789Y19613D01*
X458852D01*
X459196Y19593D01*
D02*
G37*
G36*
X452239Y12501D02*
X454947D01*
Y10605D01*
X450000D01*
Y19270D01*
X452239D01*
Y12501D01*
D02*
G37*
G36*
X468954Y13042D02*
X469141Y13001D01*
X469297Y12938D01*
X469432Y12865D01*
X469547Y12792D01*
X469630Y12740D01*
X469672Y12699D01*
X469693Y12678D01*
X469818Y12532D01*
X469922Y12365D01*
X469985Y12209D01*
X470037Y12063D01*
X470068Y11928D01*
X470078Y11813D01*
X470089Y11772D01*
Y11751D01*
Y11730D01*
Y11720D01*
X470068Y11511D01*
X470026Y11334D01*
X469964Y11168D01*
X469891Y11032D01*
X469818Y10918D01*
X469755Y10845D01*
X469714Y10793D01*
X469693Y10772D01*
X469547Y10647D01*
X469380Y10553D01*
X469224Y10491D01*
X469078Y10439D01*
X468954Y10407D01*
X468849Y10397D01*
X468808Y10387D01*
X468756D01*
X468547Y10407D01*
X468360Y10449D01*
X468193Y10512D01*
X468058Y10584D01*
X467943Y10657D01*
X467870Y10709D01*
X467818Y10751D01*
X467798Y10772D01*
X467673Y10918D01*
X467579Y11074D01*
X467516Y11241D01*
X467464Y11386D01*
X467433Y11522D01*
X467423Y11626D01*
X467412Y11667D01*
Y11699D01*
Y11709D01*
Y11720D01*
X467433Y11928D01*
X467475Y12105D01*
X467537Y12271D01*
X467610Y12407D01*
X467683Y12522D01*
X467735Y12605D01*
X467777Y12646D01*
X467798Y12667D01*
X467954Y12792D01*
X468110Y12896D01*
X468266Y12959D01*
X468422Y13011D01*
X468558Y13042D01*
X468662Y13053D01*
X468703Y13063D01*
X468756D01*
X468954Y13042D01*
D02*
G37*
%LPC*%
G36*
X357845Y184250D02*
X356155D01*
X354593Y183603D01*
X353397Y182407D01*
X352750Y180845D01*
Y179155D01*
X353397Y177593D01*
X354593Y176397D01*
X356155Y175750D01*
X357845D01*
X359407Y176397D01*
X360603Y177593D01*
X361250Y179155D01*
Y180845D01*
X360603Y182407D01*
X359407Y183603D01*
X357845Y184250D01*
D02*
G37*
G36*
X357845Y169250D02*
X356155D01*
X354593Y168603D01*
X353397Y167407D01*
X352750Y165845D01*
Y164155D01*
X353397Y162593D01*
X354593Y161397D01*
X356155Y160750D01*
X357845D01*
X359408Y161397D01*
X360603Y162593D01*
X361250Y164155D01*
Y165845D01*
X360603Y167407D01*
X359408Y168603D01*
X357845Y169250D01*
D02*
G37*
G36*
X64800Y144572D02*
X53800D01*
X51361Y144087D01*
X49294Y142706D01*
X47913Y140639D01*
X47428Y138200D01*
X47913Y135761D01*
X49294Y133694D01*
X51361Y132313D01*
X53800Y131827D01*
X64800D01*
X67239Y132313D01*
X69306Y133694D01*
X70687Y135761D01*
X71172Y138200D01*
X70687Y140639D01*
X69306Y142706D01*
X67239Y144087D01*
X64800Y144572D01*
D02*
G37*
G36*
X21500D02*
X13500D01*
X11061Y144087D01*
X8994Y142706D01*
X7613Y140639D01*
X7128Y138200D01*
X7613Y135761D01*
X8994Y133694D01*
X11061Y132313D01*
X13500Y131827D01*
X21500D01*
X23939Y132313D01*
X26006Y133694D01*
X27387Y135761D01*
X27872Y138200D01*
X27387Y140639D01*
X26006Y142706D01*
X23939Y144087D01*
X21500Y144572D01*
D02*
G37*
G36*
X175845Y131848D02*
X174155D01*
X172593Y131201D01*
X171518Y130126D01*
X171363Y130005D01*
X170033Y129978D01*
X169407Y130603D01*
X167845Y131250D01*
X166155D01*
X164593Y130603D01*
X163397Y129407D01*
X162750Y127845D01*
Y126155D01*
X163397Y124593D01*
X164593Y123397D01*
X166155Y122750D01*
X167845D01*
X169407Y123397D01*
X170483Y124472D01*
X170637Y124593D01*
X171968Y124620D01*
X172593Y123995D01*
X174155Y123348D01*
X175845D01*
X177407Y123995D01*
X178603Y125191D01*
X179250Y126753D01*
Y128444D01*
X178603Y130006D01*
X177407Y131201D01*
X175845Y131848D01*
D02*
G37*
G36*
X55195Y128400D02*
X53405D01*
X51751Y127715D01*
X50485Y126449D01*
X49800Y124795D01*
Y123005D01*
X50485Y121351D01*
X51751Y120085D01*
X53405Y119400D01*
X55195D01*
X56849Y120085D01*
X58115Y121351D01*
X58800Y123005D01*
Y124795D01*
X58115Y126449D01*
X56849Y127715D01*
X55195Y128400D01*
D02*
G37*
G36*
X224667Y126607D02*
X222976D01*
X221414Y125960D01*
X220218Y124764D01*
X219571Y123202D01*
Y121511D01*
X220218Y119949D01*
X221414Y118754D01*
X222976Y118107D01*
X224667D01*
X226229Y118754D01*
X227424Y119949D01*
X228071Y121511D01*
Y123202D01*
X227424Y124764D01*
X226229Y125960D01*
X224667Y126607D01*
D02*
G37*
G36*
X166418Y116000D02*
X164727D01*
X163165Y115353D01*
X161969Y114157D01*
X161322Y112595D01*
Y110905D01*
X161969Y109343D01*
X163165Y108147D01*
X164727Y107500D01*
X166418D01*
X167980Y108147D01*
X169175Y109343D01*
X169822Y110905D01*
Y112595D01*
X169175Y114157D01*
X167980Y115353D01*
X166418Y116000D01*
D02*
G37*
G36*
X335845Y109250D02*
X334155D01*
X332593Y108603D01*
X331397Y107407D01*
X330750Y105845D01*
Y104155D01*
X331397Y102593D01*
X332593Y101397D01*
X334155Y100750D01*
X335845D01*
X337407Y101397D01*
X338603Y102593D01*
X339250Y104155D01*
Y105845D01*
X338603Y107407D01*
X337407Y108603D01*
X335845Y109250D01*
D02*
G37*
G36*
X310845D02*
X309155D01*
X307593Y108603D01*
X306397Y107407D01*
X305750Y105845D01*
Y104155D01*
X306397Y102593D01*
X307593Y101397D01*
X309155Y100750D01*
X310845D01*
X312407Y101397D01*
X313603Y102593D01*
X314250Y104155D01*
Y105845D01*
X313603Y107407D01*
X312407Y108603D01*
X310845Y109250D01*
D02*
G37*
G36*
X270845Y89250D02*
X269155D01*
X267593Y88603D01*
X266397Y87407D01*
X265750Y85845D01*
Y84155D01*
X266397Y82593D01*
X267593Y81397D01*
X269155Y80750D01*
X270845D01*
X272407Y81397D01*
X273603Y82593D01*
X274250Y84155D01*
Y85845D01*
X273603Y87407D01*
X272407Y88603D01*
X270845Y89250D01*
D02*
G37*
G36*
X131195Y76250D02*
X129505D01*
X127943Y75603D01*
X126747Y74407D01*
X126100Y72845D01*
Y71155D01*
X126747Y69593D01*
X127943Y68397D01*
X129505Y67750D01*
X131195D01*
X132757Y68397D01*
X133953Y69593D01*
X134600Y71155D01*
Y72845D01*
X133953Y74407D01*
X132757Y75603D01*
X131195Y76250D01*
D02*
G37*
G36*
X55195Y70600D02*
X53405D01*
X51751Y69915D01*
X50485Y68649D01*
X49800Y66995D01*
Y65205D01*
X50485Y63551D01*
X51751Y62285D01*
X53405Y61600D01*
X55195D01*
X56849Y62285D01*
X58115Y63551D01*
X58800Y65205D01*
Y66995D01*
X58115Y68649D01*
X56849Y69915D01*
X55195Y70600D01*
D02*
G37*
G36*
X270845Y69250D02*
X269155D01*
X267593Y68603D01*
X266397Y67407D01*
X265750Y65845D01*
Y64155D01*
X266397Y62593D01*
X267593Y61397D01*
X269155Y60750D01*
X270845D01*
X272407Y61397D01*
X273603Y62593D01*
X274250Y64155D01*
Y65845D01*
X273603Y67407D01*
X272407Y68603D01*
X270845Y69250D01*
D02*
G37*
G36*
X169845D02*
X168155D01*
X166593Y68603D01*
X165397Y67407D01*
X164750Y65845D01*
Y64155D01*
X165397Y62593D01*
X166593Y61397D01*
X168155Y60750D01*
X169845D01*
X171407Y61397D01*
X172603Y62593D01*
X173250Y64155D01*
Y65845D01*
X172603Y67407D01*
X171407Y68603D01*
X169845Y69250D01*
D02*
G37*
G36*
X188845Y62250D02*
X187155D01*
X185593Y61603D01*
X184397Y60407D01*
X183750Y58845D01*
Y57155D01*
X184397Y55593D01*
X185593Y54397D01*
X187155Y53750D01*
X188845D01*
X190407Y54397D01*
X191603Y55593D01*
X192250Y57155D01*
Y58845D01*
X191603Y60407D01*
X190407Y61603D01*
X188845Y62250D01*
D02*
G37*
G36*
X199343Y62215D02*
X197652D01*
X196090Y61568D01*
X194894Y60373D01*
X194247Y58811D01*
Y57120D01*
X194894Y55558D01*
X196090Y54362D01*
X197652Y53715D01*
X199343D01*
X200905Y54362D01*
X202100Y55558D01*
X202747Y57120D01*
Y58811D01*
X202100Y60373D01*
X200905Y61568D01*
X199343Y62215D01*
D02*
G37*
G36*
X131195Y61250D02*
X129505D01*
X127943Y60603D01*
X126747Y59407D01*
X126100Y57845D01*
Y56155D01*
X126747Y54593D01*
X127943Y53397D01*
X129505Y52750D01*
X131195D01*
X132757Y53397D01*
X133953Y54593D01*
X134600Y56155D01*
Y57845D01*
X133953Y59407D01*
X132757Y60603D01*
X131195Y61250D01*
D02*
G37*
G36*
X64800Y58172D02*
X53800D01*
X51361Y57687D01*
X49294Y56306D01*
X47913Y54239D01*
X47428Y51800D01*
X47913Y49361D01*
X49294Y47294D01*
X51361Y45913D01*
X53800Y45427D01*
X64800D01*
X67239Y45913D01*
X69306Y47294D01*
X70687Y49361D01*
X71172Y51800D01*
X70687Y54239D01*
X69306Y56306D01*
X67239Y57687D01*
X64800Y58172D01*
D02*
G37*
G36*
X21500D02*
X13500D01*
X11061Y57687D01*
X8994Y56306D01*
X7613Y54239D01*
X7128Y51800D01*
X7613Y49361D01*
X8994Y47294D01*
X11061Y45913D01*
X13500Y45427D01*
X21500D01*
X23939Y45913D01*
X26006Y47294D01*
X27387Y49361D01*
X27872Y51800D01*
X27387Y54239D01*
X26006Y56306D01*
X23939Y57687D01*
X21500Y58172D01*
D02*
G37*
G36*
X92845Y48200D02*
X91155D01*
X89593Y47553D01*
X88397Y46357D01*
X87750Y44795D01*
Y43105D01*
X88397Y41543D01*
X89593Y40347D01*
X91155Y39700D01*
X92845D01*
X94407Y40347D01*
X95603Y41543D01*
X96250Y43105D01*
Y44795D01*
X95603Y46357D01*
X94407Y47553D01*
X92845Y48200D01*
D02*
G37*
G36*
X126845Y46250D02*
X125155D01*
X123593Y45603D01*
X122397Y44407D01*
X121750Y42845D01*
Y41155D01*
X122397Y39593D01*
X123593Y38397D01*
X125155Y37750D01*
X126845D01*
X128407Y38397D01*
X129603Y39593D01*
X130250Y41155D01*
Y42845D01*
X129603Y44407D01*
X128407Y45603D01*
X126845Y46250D01*
D02*
G37*
G36*
X110845D02*
X109155D01*
X107593Y45603D01*
X106397Y44407D01*
X105750Y42845D01*
Y41155D01*
X106397Y39593D01*
X107593Y38397D01*
X109155Y37750D01*
X110845D01*
X112407Y38397D01*
X113603Y39593D01*
X114250Y41155D01*
Y42845D01*
X113603Y44407D01*
X112407Y45603D01*
X110845Y46250D01*
D02*
G37*
G36*
X220845Y43250D02*
X219155D01*
X217593Y42603D01*
X216397Y41407D01*
X215750Y39845D01*
Y38155D01*
X216397Y36593D01*
X217593Y35397D01*
X219155Y34750D01*
X220845D01*
X222407Y35397D01*
X223603Y36593D01*
X224250Y38155D01*
Y39845D01*
X223603Y41407D01*
X222407Y42603D01*
X220845Y43250D01*
D02*
G37*
G36*
X193845Y42220D02*
X192155D01*
X190593Y41573D01*
X189397Y40377D01*
X188750Y38815D01*
Y37125D01*
X189397Y35563D01*
X190593Y34367D01*
X192155Y33720D01*
X193845D01*
X195407Y34367D01*
X196603Y35563D01*
X197250Y37125D01*
Y38815D01*
X196603Y40377D01*
X195407Y41573D01*
X193845Y42220D01*
D02*
G37*
G36*
X175364Y40910D02*
X173076D01*
X170963Y40035D01*
X169345Y38417D01*
X168470Y36304D01*
Y34016D01*
X169345Y31903D01*
X170963Y30285D01*
X173076Y29410D01*
X175364D01*
X177477Y30285D01*
X179095Y31903D01*
X179970Y34016D01*
Y36304D01*
X179095Y38417D01*
X177477Y40035D01*
X175364Y40910D01*
D02*
G37*
G36*
X136295Y36800D02*
X134605D01*
X133043Y36153D01*
X131847Y34957D01*
X131200Y33395D01*
Y31705D01*
X131847Y30143D01*
X133043Y28947D01*
X134605Y28300D01*
X136295D01*
X137857Y28947D01*
X139053Y30143D01*
X139700Y31705D01*
Y33395D01*
X139053Y34957D01*
X137857Y36153D01*
X136295Y36800D01*
D02*
G37*
G36*
X92845Y29300D02*
X91155D01*
X89593Y28653D01*
X88397Y27457D01*
X87750Y25895D01*
Y24205D01*
X88397Y22643D01*
X89593Y21447D01*
X91155Y20800D01*
X92845D01*
X94407Y21447D01*
X95603Y22643D01*
X96250Y24205D01*
Y25895D01*
X95603Y27457D01*
X94407Y28653D01*
X92845Y29300D01*
D02*
G37*
G36*
X226164Y30750D02*
X223876D01*
X221763Y29875D01*
X220145Y28257D01*
X219270Y26144D01*
Y23856D01*
X220145Y21743D01*
X221763Y20125D01*
X223876Y19250D01*
X226164D01*
X228277Y20125D01*
X229895Y21743D01*
X230770Y23856D01*
Y26144D01*
X229895Y28257D01*
X228277Y29875D01*
X226164Y30750D01*
D02*
G37*
G36*
X175364Y20590D02*
X173076D01*
X170963Y19715D01*
X169345Y18097D01*
X168470Y15984D01*
Y13696D01*
X169345Y11583D01*
X170963Y9965D01*
X173076Y9090D01*
X175364D01*
X177477Y9965D01*
X179095Y11583D01*
X179970Y13696D01*
Y15984D01*
X179095Y18097D01*
X177477Y19715D01*
X175364Y20590D01*
D02*
G37*
G36*
X213165Y14630D02*
X211474D01*
X209912Y13983D01*
X208717Y12787D01*
X208070Y11226D01*
Y9535D01*
X208717Y7973D01*
X209912Y6777D01*
X211474Y6130D01*
X213165D01*
X214727Y6777D01*
X215923Y7973D01*
X216570Y9535D01*
Y11226D01*
X215923Y12787D01*
X214727Y13983D01*
X213165Y14630D01*
D02*
G37*
G36*
X200465D02*
X198775D01*
X197213Y13983D01*
X196017Y12787D01*
X195370Y11226D01*
Y9535D01*
X196017Y7973D01*
X197213Y6777D01*
X198775Y6130D01*
X200465D01*
X202027Y6777D01*
X203223Y7973D01*
X203870Y9535D01*
Y11226D01*
X203223Y12787D01*
X202027Y13983D01*
X200465Y14630D01*
D02*
G37*
G36*
X493354Y17374D02*
X492677D01*
Y12501D01*
X493176D01*
X493322Y12511D01*
X493447D01*
X493551Y12522D01*
X493635Y12532D01*
X493697D01*
X493728Y12542D01*
X493739D01*
X493916Y12584D01*
X493999Y12605D01*
X494062Y12626D01*
X494124Y12636D01*
X494166Y12657D01*
X494187Y12667D01*
X494197D01*
X494416Y12761D01*
X494624Y12875D01*
X494801Y12990D01*
X494947Y13115D01*
X495072Y13230D01*
X495165Y13323D01*
X495218Y13386D01*
X495238Y13396D01*
Y13407D01*
X495311Y13511D01*
X495384Y13625D01*
X495488Y13875D01*
X495572Y14125D01*
X495624Y14375D01*
X495645Y14490D01*
X495655Y14594D01*
X495665Y14688D01*
X495676Y14771D01*
X495686Y14844D01*
Y14896D01*
Y14927D01*
Y14937D01*
X495676Y15156D01*
X495645Y15354D01*
X495613Y15541D01*
X495561Y15719D01*
X495509Y15875D01*
X495447Y16021D01*
X495384Y16156D01*
X495322Y16281D01*
X495259Y16385D01*
X495197Y16479D01*
X495134Y16562D01*
X495082Y16625D01*
X495041Y16677D01*
X495009Y16708D01*
X494989Y16729D01*
X494978Y16739D01*
X494853Y16854D01*
X494718Y16947D01*
X494572Y17031D01*
X494426Y17104D01*
X494280Y17166D01*
X494134Y17218D01*
X493864Y17291D01*
X493739Y17322D01*
X493624Y17343D01*
X493520Y17354D01*
X493426Y17364D01*
X493354Y17374D01*
D02*
G37*
%LPD*%
D51*
X225020Y25000D02*
D03*
X174220Y14840D02*
D03*
Y35160D02*
D03*
D61*
X17500Y51800D02*
D03*
Y138200D02*
D03*
D62*
X59300Y51800D02*
D03*
Y138200D02*
D03*
D63*
X54300Y123900D02*
D03*
Y66100D02*
D03*
D64*
X357000Y165000D02*
D03*
X357000Y180000D02*
D03*
X251859Y140945D02*
D03*
X242409Y150395D02*
D03*
X137534Y130338D02*
D03*
X189552Y161002D02*
D03*
X199002Y151552D02*
D03*
X146984Y139789D02*
D03*
X74450Y127000D02*
D03*
X91950Y123900D02*
D03*
X108350Y77500D02*
D03*
X130350Y57000D02*
D03*
Y72000D02*
D03*
X92000Y25050D02*
D03*
X135450Y32550D02*
D03*
X126000Y42000D02*
D03*
X110000D02*
D03*
X92000Y43950D02*
D03*
X220000Y39000D02*
D03*
X186920Y31350D02*
D03*
X193000Y37970D02*
D03*
X198497Y57965D02*
D03*
X188000Y58000D02*
D03*
X212320Y10380D02*
D03*
X199620D02*
D03*
X169000Y65000D02*
D03*
X270000D02*
D03*
Y85000D02*
D03*
X175000Y127598D02*
D03*
X167000Y127000D02*
D03*
X223821Y122357D02*
D03*
X165572Y111750D02*
D03*
X335000Y105000D02*
D03*
X310000D02*
D03*
X322500Y137500D02*
D03*
X310000Y125000D02*
D03*
X335000D02*
D03*
X207778Y102778D02*
D03*
X200000Y110556D02*
D03*
X192222Y102778D02*
D03*
X115000Y95000D02*
D03*
X200000D02*
D03*
X215556D02*
D03*
X192222Y87222D02*
D03*
X207778D02*
D03*
X200000Y79444D02*
D03*
X184444Y95000D02*
D03*
X73000Y58000D02*
D03*
X40500Y155000D02*
D03*
X39000Y17450D02*
D03*
X49050Y8000D02*
D03*
X28000Y7350D02*
D03*
X12000Y8000D02*
D03*
M02*
